<mxfile host="app.diagrams.net" agent="Mozilla/5.0 (Windows NT 10.0; Win64; x64) AppleWebKit/537.36 (KHTML, like Gecko) Chrome/137.0.0.0 Safari/537.36" version="27.1.5">
  <diagram name="Page-1" id="4qmAPt1-PfqhE-3wgeth">
    <mxGraphModel dx="2084" dy="1140" grid="1" gridSize="10" guides="1" tooltips="1" connect="1" arrows="1" fold="1" page="1" pageScale="1" pageWidth="850" pageHeight="1100" math="0" shadow="0">
      <root>
        <mxCell id="0" />
        <mxCell id="1" parent="0" />
        <mxCell id="Xa8ql2i2aWNEMabl2fK9-25" value="" style="group" vertex="1" connectable="0" parent="1">
          <mxGeometry x="100" y="60" width="130" height="200" as="geometry" />
        </mxCell>
        <mxCell id="Xa8ql2i2aWNEMabl2fK9-14" value="&lt;span&gt;Klijent&lt;/span&gt;" style="rounded=0;whiteSpace=wrap;html=1;" vertex="1" parent="Xa8ql2i2aWNEMabl2fK9-25">
          <mxGeometry width="130" height="33.333333333333336" as="geometry" />
        </mxCell>
        <mxCell id="Xa8ql2i2aWNEMabl2fK9-15" value="string" style="rounded=0;whiteSpace=wrap;html=1;" vertex="1" parent="Xa8ql2i2aWNEMabl2fK9-25">
          <mxGeometry y="33.333333333333336" width="48.75" height="33.333333333333336" as="geometry" />
        </mxCell>
        <mxCell id="Xa8ql2i2aWNEMabl2fK9-16" value="Šifra" style="rounded=0;whiteSpace=wrap;html=1;" vertex="1" parent="Xa8ql2i2aWNEMabl2fK9-25">
          <mxGeometry x="48.75" y="33.333333333333336" width="81.25" height="33.333333333333336" as="geometry" />
        </mxCell>
        <mxCell id="Xa8ql2i2aWNEMabl2fK9-17" value="string" style="rounded=0;whiteSpace=wrap;html=1;" vertex="1" parent="Xa8ql2i2aWNEMabl2fK9-25">
          <mxGeometry y="66.66666666666667" width="48.75" height="33.333333333333336" as="geometry" />
        </mxCell>
        <mxCell id="Xa8ql2i2aWNEMabl2fK9-18" value="string" style="rounded=0;whiteSpace=wrap;html=1;" vertex="1" parent="Xa8ql2i2aWNEMabl2fK9-25">
          <mxGeometry y="100" width="48.75" height="33.333333333333336" as="geometry" />
        </mxCell>
        <mxCell id="Xa8ql2i2aWNEMabl2fK9-19" value="string" style="rounded=0;whiteSpace=wrap;html=1;" vertex="1" parent="Xa8ql2i2aWNEMabl2fK9-25">
          <mxGeometry y="133.33333333333334" width="48.75" height="33.333333333333336" as="geometry" />
        </mxCell>
        <mxCell id="Xa8ql2i2aWNEMabl2fK9-20" value="string" style="rounded=0;whiteSpace=wrap;html=1;" vertex="1" parent="Xa8ql2i2aWNEMabl2fK9-25">
          <mxGeometry y="166.66666666666669" width="48.75" height="33.333333333333336" as="geometry" />
        </mxCell>
        <mxCell id="Xa8ql2i2aWNEMabl2fK9-21" value="Ime" style="rounded=0;whiteSpace=wrap;html=1;" vertex="1" parent="Xa8ql2i2aWNEMabl2fK9-25">
          <mxGeometry x="48.75" y="66.66666666666667" width="81.25" height="33.333333333333336" as="geometry" />
        </mxCell>
        <mxCell id="Xa8ql2i2aWNEMabl2fK9-22" value="Prezime" style="rounded=0;whiteSpace=wrap;html=1;" vertex="1" parent="Xa8ql2i2aWNEMabl2fK9-25">
          <mxGeometry x="48.75" y="100" width="81.25" height="33.333333333333336" as="geometry" />
        </mxCell>
        <mxCell id="Xa8ql2i2aWNEMabl2fK9-23" value="Email" style="rounded=0;whiteSpace=wrap;html=1;" vertex="1" parent="Xa8ql2i2aWNEMabl2fK9-25">
          <mxGeometry x="48.75" y="133.33333333333334" width="81.25" height="33.333333333333336" as="geometry" />
        </mxCell>
        <mxCell id="Xa8ql2i2aWNEMabl2fK9-24" value="BrojTelefona" style="rounded=0;whiteSpace=wrap;html=1;" vertex="1" parent="Xa8ql2i2aWNEMabl2fK9-25">
          <mxGeometry x="48.75" y="166.66666666666669" width="81.25" height="33.333333333333336" as="geometry" />
        </mxCell>
        <mxCell id="Xa8ql2i2aWNEMabl2fK9-26" value="" style="group" vertex="1" connectable="0" parent="1">
          <mxGeometry x="600" y="50" width="140" height="210" as="geometry" />
        </mxCell>
        <mxCell id="Xa8ql2i2aWNEMabl2fK9-38" value="" style="group" vertex="1" connectable="0" parent="Xa8ql2i2aWNEMabl2fK9-26">
          <mxGeometry width="140" height="175" as="geometry" />
        </mxCell>
        <mxCell id="Xa8ql2i2aWNEMabl2fK9-27" value="Zaposlenik" style="rounded=0;whiteSpace=wrap;html=1;" vertex="1" parent="Xa8ql2i2aWNEMabl2fK9-38">
          <mxGeometry width="140" height="35" as="geometry" />
        </mxCell>
        <mxCell id="Xa8ql2i2aWNEMabl2fK9-28" value="string" style="rounded=0;whiteSpace=wrap;html=1;" vertex="1" parent="Xa8ql2i2aWNEMabl2fK9-38">
          <mxGeometry y="35" width="52.5" height="35" as="geometry" />
        </mxCell>
        <mxCell id="Xa8ql2i2aWNEMabl2fK9-29" value="Šifra" style="rounded=0;whiteSpace=wrap;html=1;" vertex="1" parent="Xa8ql2i2aWNEMabl2fK9-38">
          <mxGeometry x="52.5" y="35" width="87.5" height="35" as="geometry" />
        </mxCell>
        <mxCell id="Xa8ql2i2aWNEMabl2fK9-30" value="string" style="rounded=0;whiteSpace=wrap;html=1;" vertex="1" parent="Xa8ql2i2aWNEMabl2fK9-38">
          <mxGeometry y="70" width="52.5" height="35" as="geometry" />
        </mxCell>
        <mxCell id="Xa8ql2i2aWNEMabl2fK9-31" value="string" style="rounded=0;whiteSpace=wrap;html=1;" vertex="1" parent="Xa8ql2i2aWNEMabl2fK9-38">
          <mxGeometry y="105" width="52.5" height="35" as="geometry" />
        </mxCell>
        <mxCell id="Xa8ql2i2aWNEMabl2fK9-32" value="string" style="rounded=0;whiteSpace=wrap;html=1;" vertex="1" parent="Xa8ql2i2aWNEMabl2fK9-38">
          <mxGeometry y="140" width="52.5" height="35" as="geometry" />
        </mxCell>
        <mxCell id="Xa8ql2i2aWNEMabl2fK9-34" value="Ime" style="rounded=0;whiteSpace=wrap;html=1;" vertex="1" parent="Xa8ql2i2aWNEMabl2fK9-38">
          <mxGeometry x="52.5" y="70" width="87.5" height="35" as="geometry" />
        </mxCell>
        <mxCell id="Xa8ql2i2aWNEMabl2fK9-35" value="Prezime" style="rounded=0;whiteSpace=wrap;html=1;" vertex="1" parent="Xa8ql2i2aWNEMabl2fK9-38">
          <mxGeometry x="52.5" y="105" width="87.5" height="35" as="geometry" />
        </mxCell>
        <mxCell id="Xa8ql2i2aWNEMabl2fK9-36" value="Uloga" style="rounded=0;whiteSpace=wrap;html=1;" vertex="1" parent="Xa8ql2i2aWNEMabl2fK9-38">
          <mxGeometry x="52.5" y="140" width="87.5" height="35" as="geometry" />
        </mxCell>
        <mxCell id="Xa8ql2i2aWNEMabl2fK9-39" value="" style="group" vertex="1" connectable="0" parent="1">
          <mxGeometry x="350" y="460" width="140" height="210" as="geometry" />
        </mxCell>
        <mxCell id="Xa8ql2i2aWNEMabl2fK9-51" value="" style="group" vertex="1" connectable="0" parent="Xa8ql2i2aWNEMabl2fK9-39">
          <mxGeometry width="140" height="140" as="geometry" />
        </mxCell>
        <mxCell id="Xa8ql2i2aWNEMabl2fK9-40" value="Termin" style="rounded=0;whiteSpace=wrap;html=1;" vertex="1" parent="Xa8ql2i2aWNEMabl2fK9-51">
          <mxGeometry width="140" height="35" as="geometry" />
        </mxCell>
        <mxCell id="Xa8ql2i2aWNEMabl2fK9-41" value="string" style="rounded=0;whiteSpace=wrap;html=1;" vertex="1" parent="Xa8ql2i2aWNEMabl2fK9-51">
          <mxGeometry y="35" width="52.5" height="35" as="geometry" />
        </mxCell>
        <mxCell id="Xa8ql2i2aWNEMabl2fK9-42" value="Šifra" style="rounded=0;whiteSpace=wrap;html=1;" vertex="1" parent="Xa8ql2i2aWNEMabl2fK9-51">
          <mxGeometry x="52.5" y="35" width="87.5" height="35" as="geometry" />
        </mxCell>
        <mxCell id="Xa8ql2i2aWNEMabl2fK9-43" value="string" style="rounded=0;whiteSpace=wrap;html=1;" vertex="1" parent="Xa8ql2i2aWNEMabl2fK9-51">
          <mxGeometry y="70" width="52.5" height="35" as="geometry" />
        </mxCell>
        <mxCell id="Xa8ql2i2aWNEMabl2fK9-44" value="string" style="rounded=0;whiteSpace=wrap;html=1;" vertex="1" parent="Xa8ql2i2aWNEMabl2fK9-51">
          <mxGeometry y="105" width="52.5" height="35" as="geometry" />
        </mxCell>
        <mxCell id="Xa8ql2i2aWNEMabl2fK9-47" value="DatumVrijeme" style="rounded=0;whiteSpace=wrap;html=1;" vertex="1" parent="Xa8ql2i2aWNEMabl2fK9-51">
          <mxGeometry x="52.5" y="70" width="87.5" height="35" as="geometry" />
        </mxCell>
        <mxCell id="Xa8ql2i2aWNEMabl2fK9-48" value="Status" style="rounded=0;whiteSpace=wrap;html=1;" vertex="1" parent="Xa8ql2i2aWNEMabl2fK9-51">
          <mxGeometry x="52.5" y="105" width="87.5" height="35" as="geometry" />
        </mxCell>
        <mxCell id="Xa8ql2i2aWNEMabl2fK9-52" value="" style="group" vertex="1" connectable="0" parent="1">
          <mxGeometry x="100" y="780" width="140" height="210" as="geometry" />
        </mxCell>
        <mxCell id="Xa8ql2i2aWNEMabl2fK9-54" value="Račun" style="rounded=0;whiteSpace=wrap;html=1;container=0;" vertex="1" parent="Xa8ql2i2aWNEMabl2fK9-52">
          <mxGeometry width="140" height="35" as="geometry" />
        </mxCell>
        <mxCell id="Xa8ql2i2aWNEMabl2fK9-55" value="string" style="rounded=0;whiteSpace=wrap;html=1;container=0;" vertex="1" parent="Xa8ql2i2aWNEMabl2fK9-52">
          <mxGeometry y="35" width="52.5" height="35" as="geometry" />
        </mxCell>
        <mxCell id="Xa8ql2i2aWNEMabl2fK9-56" value="Šifra" style="rounded=0;whiteSpace=wrap;html=1;container=0;" vertex="1" parent="Xa8ql2i2aWNEMabl2fK9-52">
          <mxGeometry x="52.5" y="35" width="87.5" height="35" as="geometry" />
        </mxCell>
        <mxCell id="Xa8ql2i2aWNEMabl2fK9-57" value="string" style="rounded=0;whiteSpace=wrap;html=1;container=0;" vertex="1" parent="Xa8ql2i2aWNEMabl2fK9-52">
          <mxGeometry y="70" width="52.5" height="35" as="geometry" />
        </mxCell>
        <mxCell id="Xa8ql2i2aWNEMabl2fK9-58" value="string" style="rounded=0;whiteSpace=wrap;html=1;container=0;" vertex="1" parent="Xa8ql2i2aWNEMabl2fK9-52">
          <mxGeometry y="105" width="52.5" height="35" as="geometry" />
        </mxCell>
        <mxCell id="Xa8ql2i2aWNEMabl2fK9-59" value="DatumIzdavanja" style="rounded=0;whiteSpace=wrap;html=1;container=0;" vertex="1" parent="Xa8ql2i2aWNEMabl2fK9-52">
          <mxGeometry x="52.5" y="70" width="87.5" height="35" as="geometry" />
        </mxCell>
        <mxCell id="Xa8ql2i2aWNEMabl2fK9-60" value="UkupanIznos" style="rounded=0;whiteSpace=wrap;html=1;container=0;" vertex="1" parent="Xa8ql2i2aWNEMabl2fK9-52">
          <mxGeometry x="52.5" y="105" width="87.5" height="35" as="geometry" />
        </mxCell>
        <mxCell id="Xa8ql2i2aWNEMabl2fK9-62" value="" style="group" vertex="1" connectable="0" parent="1">
          <mxGeometry x="600" y="780" width="140" height="210" as="geometry" />
        </mxCell>
        <mxCell id="Xa8ql2i2aWNEMabl2fK9-74" value="" style="group" vertex="1" connectable="0" parent="Xa8ql2i2aWNEMabl2fK9-62">
          <mxGeometry width="140" height="175" as="geometry" />
        </mxCell>
        <mxCell id="Xa8ql2i2aWNEMabl2fK9-63" value="" style="group" vertex="1" connectable="0" parent="Xa8ql2i2aWNEMabl2fK9-74">
          <mxGeometry width="140" height="140" as="geometry" />
        </mxCell>
        <mxCell id="Xa8ql2i2aWNEMabl2fK9-64" value="Usluga" style="rounded=0;whiteSpace=wrap;html=1;" vertex="1" parent="Xa8ql2i2aWNEMabl2fK9-63">
          <mxGeometry width="140" height="35" as="geometry" />
        </mxCell>
        <mxCell id="Xa8ql2i2aWNEMabl2fK9-65" value="string" style="rounded=0;whiteSpace=wrap;html=1;" vertex="1" parent="Xa8ql2i2aWNEMabl2fK9-63">
          <mxGeometry y="35" width="52.5" height="35" as="geometry" />
        </mxCell>
        <mxCell id="Xa8ql2i2aWNEMabl2fK9-66" value="Šifra" style="rounded=0;whiteSpace=wrap;html=1;" vertex="1" parent="Xa8ql2i2aWNEMabl2fK9-63">
          <mxGeometry x="52.5" y="35" width="87.5" height="35" as="geometry" />
        </mxCell>
        <mxCell id="Xa8ql2i2aWNEMabl2fK9-67" value="string" style="rounded=0;whiteSpace=wrap;html=1;" vertex="1" parent="Xa8ql2i2aWNEMabl2fK9-63">
          <mxGeometry y="70" width="52.5" height="35" as="geometry" />
        </mxCell>
        <mxCell id="Xa8ql2i2aWNEMabl2fK9-68" value="string" style="rounded=0;whiteSpace=wrap;html=1;" vertex="1" parent="Xa8ql2i2aWNEMabl2fK9-63">
          <mxGeometry y="105" width="52.5" height="35" as="geometry" />
        </mxCell>
        <mxCell id="Xa8ql2i2aWNEMabl2fK9-69" value="Naziv" style="rounded=0;whiteSpace=wrap;html=1;" vertex="1" parent="Xa8ql2i2aWNEMabl2fK9-63">
          <mxGeometry x="52.5" y="70" width="87.5" height="35" as="geometry" />
        </mxCell>
        <mxCell id="Xa8ql2i2aWNEMabl2fK9-70" value="Cijena" style="rounded=0;whiteSpace=wrap;html=1;" vertex="1" parent="Xa8ql2i2aWNEMabl2fK9-63">
          <mxGeometry x="52.5" y="105" width="87.5" height="35" as="geometry" />
        </mxCell>
        <mxCell id="Xa8ql2i2aWNEMabl2fK9-72" value="string" style="rounded=0;whiteSpace=wrap;html=1;" vertex="1" parent="Xa8ql2i2aWNEMabl2fK9-74">
          <mxGeometry y="140" width="52.5" height="35" as="geometry" />
        </mxCell>
        <mxCell id="Xa8ql2i2aWNEMabl2fK9-73" value="Trajanje" style="rounded=0;whiteSpace=wrap;html=1;" vertex="1" parent="Xa8ql2i2aWNEMabl2fK9-74">
          <mxGeometry x="52.5" y="140" width="87.5" height="35" as="geometry" />
        </mxCell>
        <mxCell id="Xa8ql2i2aWNEMabl2fK9-97" value="Rezervira" style="shape=rhombus;double=1;perimeter=rhombusPerimeter;whiteSpace=wrap;html=1;align=center;" vertex="1" parent="1">
          <mxGeometry x="100" y="370" width="120" height="60" as="geometry" />
        </mxCell>
        <mxCell id="Xa8ql2i2aWNEMabl2fK9-99" value="Obavlja" style="shape=rhombus;double=1;perimeter=rhombusPerimeter;whiteSpace=wrap;html=1;align=center;" vertex="1" parent="1">
          <mxGeometry x="520" y="370" width="120" height="60" as="geometry" />
        </mxCell>
        <mxCell id="Xa8ql2i2aWNEMabl2fK9-100" value="Generira" style="shape=rhombus;double=1;perimeter=rhombusPerimeter;whiteSpace=wrap;html=1;align=center;" vertex="1" parent="1">
          <mxGeometry x="100" y="650" width="120" height="60" as="geometry" />
        </mxCell>
        <mxCell id="Xa8ql2i2aWNEMabl2fK9-101" value="Sadrži" style="shape=rhombus;double=1;perimeter=rhombusPerimeter;whiteSpace=wrap;html=1;align=center;" vertex="1" parent="1">
          <mxGeometry x="500" y="660" width="120" height="60" as="geometry" />
        </mxCell>
        <mxCell id="Xa8ql2i2aWNEMabl2fK9-102" value="Pruža" style="shape=rhombus;double=1;perimeter=rhombusPerimeter;whiteSpace=wrap;html=1;align=center;" vertex="1" parent="1">
          <mxGeometry x="680" y="660" width="120" height="60" as="geometry" />
        </mxCell>
        <mxCell id="Xa8ql2i2aWNEMabl2fK9-103" value="" style="endArrow=none;html=1;rounded=0;exitX=0.5;exitY=0;exitDx=0;exitDy=0;" edge="1" parent="1" source="Xa8ql2i2aWNEMabl2fK9-97">
          <mxGeometry width="50" height="50" relative="1" as="geometry">
            <mxPoint x="380" y="500" as="sourcePoint" />
            <mxPoint x="160" y="260" as="targetPoint" />
          </mxGeometry>
        </mxCell>
        <mxCell id="Xa8ql2i2aWNEMabl2fK9-106" value="N" style="edgeLabel;html=1;align=center;verticalAlign=middle;resizable=0;points=[];" vertex="1" connectable="0" parent="Xa8ql2i2aWNEMabl2fK9-103">
          <mxGeometry x="-0.0749" y="-2" relative="1" as="geometry">
            <mxPoint as="offset" />
          </mxGeometry>
        </mxCell>
        <mxCell id="Xa8ql2i2aWNEMabl2fK9-105" value="" style="endArrow=none;html=1;rounded=0;entryX=1;entryY=0.5;entryDx=0;entryDy=0;exitX=0;exitY=0.5;exitDx=0;exitDy=0;" edge="1" parent="1" source="Xa8ql2i2aWNEMabl2fK9-40" target="Xa8ql2i2aWNEMabl2fK9-97">
          <mxGeometry width="50" height="50" relative="1" as="geometry">
            <mxPoint x="380" y="500" as="sourcePoint" />
            <mxPoint x="430" y="450" as="targetPoint" />
            <Array as="points">
              <mxPoint x="220" y="478" />
            </Array>
          </mxGeometry>
        </mxCell>
        <mxCell id="Xa8ql2i2aWNEMabl2fK9-108" value="1" style="edgeLabel;html=1;align=center;verticalAlign=middle;resizable=0;points=[];" vertex="1" connectable="0" parent="Xa8ql2i2aWNEMabl2fK9-105">
          <mxGeometry x="0.6126" relative="1" as="geometry">
            <mxPoint y="1" as="offset" />
          </mxGeometry>
        </mxCell>
        <mxCell id="Xa8ql2i2aWNEMabl2fK9-109" value="" style="endArrow=none;html=1;rounded=0;entryX=0;entryY=0.5;entryDx=0;entryDy=0;exitX=0.5;exitY=0;exitDx=0;exitDy=0;" edge="1" parent="1" source="Xa8ql2i2aWNEMabl2fK9-40" target="Xa8ql2i2aWNEMabl2fK9-99">
          <mxGeometry width="50" height="50" relative="1" as="geometry">
            <mxPoint x="380" y="500" as="sourcePoint" />
            <mxPoint x="430" y="450" as="targetPoint" />
            <Array as="points">
              <mxPoint x="420" y="400" />
            </Array>
          </mxGeometry>
        </mxCell>
        <mxCell id="Xa8ql2i2aWNEMabl2fK9-113" value="1" style="edgeLabel;html=1;align=center;verticalAlign=middle;resizable=0;points=[];" vertex="1" connectable="0" parent="Xa8ql2i2aWNEMabl2fK9-109">
          <mxGeometry x="0.3044" relative="1" as="geometry">
            <mxPoint as="offset" />
          </mxGeometry>
        </mxCell>
        <mxCell id="Xa8ql2i2aWNEMabl2fK9-110" value="" style="endArrow=none;html=1;rounded=0;entryX=0.25;entryY=1;entryDx=0;entryDy=0;exitX=0.5;exitY=0;exitDx=0;exitDy=0;" edge="1" parent="1" source="Xa8ql2i2aWNEMabl2fK9-99" target="Xa8ql2i2aWNEMabl2fK9-36">
          <mxGeometry width="50" height="50" relative="1" as="geometry">
            <mxPoint x="380" y="500" as="sourcePoint" />
            <mxPoint x="430" y="450" as="targetPoint" />
          </mxGeometry>
        </mxCell>
        <mxCell id="Xa8ql2i2aWNEMabl2fK9-112" value="N" style="edgeLabel;html=1;align=center;verticalAlign=middle;resizable=0;points=[];" vertex="1" connectable="0" parent="Xa8ql2i2aWNEMabl2fK9-110">
          <mxGeometry x="-0.0375" relative="1" as="geometry">
            <mxPoint as="offset" />
          </mxGeometry>
        </mxCell>
        <mxCell id="Xa8ql2i2aWNEMabl2fK9-111" value="" style="endArrow=none;html=1;rounded=0;entryX=1;entryY=1;entryDx=0;entryDy=0;exitX=0.5;exitY=0;exitDx=0;exitDy=0;" edge="1" parent="1" source="Xa8ql2i2aWNEMabl2fK9-102" target="Xa8ql2i2aWNEMabl2fK9-36">
          <mxGeometry width="50" height="50" relative="1" as="geometry">
            <mxPoint x="740" y="650" as="sourcePoint" />
            <mxPoint x="720" y="230" as="targetPoint" />
          </mxGeometry>
        </mxCell>
        <mxCell id="Xa8ql2i2aWNEMabl2fK9-114" value="N" style="edgeLabel;html=1;align=center;verticalAlign=middle;resizable=0;points=[];" vertex="1" connectable="0" parent="Xa8ql2i2aWNEMabl2fK9-111">
          <mxGeometry x="0.0311" relative="1" as="geometry">
            <mxPoint as="offset" />
          </mxGeometry>
        </mxCell>
        <mxCell id="Xa8ql2i2aWNEMabl2fK9-115" value="1" style="endArrow=none;html=1;rounded=0;entryX=0.5;entryY=1;entryDx=0;entryDy=0;" edge="1" parent="1" target="Xa8ql2i2aWNEMabl2fK9-100">
          <mxGeometry width="50" height="50" relative="1" as="geometry">
            <mxPoint x="160" y="780" as="sourcePoint" />
            <mxPoint x="430" y="450" as="targetPoint" />
          </mxGeometry>
        </mxCell>
        <mxCell id="Xa8ql2i2aWNEMabl2fK9-116" value="" style="endArrow=none;html=1;rounded=0;exitX=0.5;exitY=0;exitDx=0;exitDy=0;entryX=0;entryY=0;entryDx=0;entryDy=0;" edge="1" parent="1" source="Xa8ql2i2aWNEMabl2fK9-100" target="Xa8ql2i2aWNEMabl2fK9-43">
          <mxGeometry width="50" height="50" relative="1" as="geometry">
            <mxPoint x="380" y="500" as="sourcePoint" />
            <mxPoint x="430" y="450" as="targetPoint" />
            <Array as="points">
              <mxPoint x="160" y="530" />
            </Array>
          </mxGeometry>
        </mxCell>
        <mxCell id="Xa8ql2i2aWNEMabl2fK9-120" value="1" style="edgeLabel;html=1;align=center;verticalAlign=middle;resizable=0;points=[];" vertex="1" connectable="0" parent="Xa8ql2i2aWNEMabl2fK9-116">
          <mxGeometry x="-0.6004" relative="1" as="geometry">
            <mxPoint as="offset" />
          </mxGeometry>
        </mxCell>
        <mxCell id="Xa8ql2i2aWNEMabl2fK9-117" value="" style="endArrow=none;html=1;rounded=0;entryX=0.5;entryY=1;entryDx=0;entryDy=0;exitX=0.75;exitY=0;exitDx=0;exitDy=0;" edge="1" parent="1" source="Xa8ql2i2aWNEMabl2fK9-64" target="Xa8ql2i2aWNEMabl2fK9-102">
          <mxGeometry width="50" height="50" relative="1" as="geometry">
            <mxPoint x="380" y="670" as="sourcePoint" />
            <mxPoint x="430" y="620" as="targetPoint" />
            <Array as="points">
              <mxPoint x="705" y="740" />
            </Array>
          </mxGeometry>
        </mxCell>
        <mxCell id="Xa8ql2i2aWNEMabl2fK9-123" value="M" style="edgeLabel;html=1;align=center;verticalAlign=middle;resizable=0;points=[];" vertex="1" connectable="0" parent="Xa8ql2i2aWNEMabl2fK9-117">
          <mxGeometry x="-0.4389" y="1" relative="1" as="geometry">
            <mxPoint as="offset" />
          </mxGeometry>
        </mxCell>
        <mxCell id="Xa8ql2i2aWNEMabl2fK9-118" value="" style="endArrow=none;html=1;rounded=0;exitX=0.5;exitY=0;exitDx=0;exitDy=0;" edge="1" parent="1" source="Xa8ql2i2aWNEMabl2fK9-101">
          <mxGeometry width="50" height="50" relative="1" as="geometry">
            <mxPoint x="380" y="670" as="sourcePoint" />
            <mxPoint x="490" y="530" as="targetPoint" />
            <Array as="points">
              <mxPoint x="560" y="530" />
            </Array>
          </mxGeometry>
        </mxCell>
        <mxCell id="Xa8ql2i2aWNEMabl2fK9-121" value="N" style="edgeLabel;html=1;align=center;verticalAlign=middle;resizable=0;points=[];" vertex="1" connectable="0" parent="Xa8ql2i2aWNEMabl2fK9-118">
          <mxGeometry x="-0.3982" y="2" relative="1" as="geometry">
            <mxPoint as="offset" />
          </mxGeometry>
        </mxCell>
        <mxCell id="Xa8ql2i2aWNEMabl2fK9-119" value="" style="endArrow=none;html=1;rounded=0;entryX=0.5;entryY=1;entryDx=0;entryDy=0;" edge="1" parent="1" target="Xa8ql2i2aWNEMabl2fK9-101">
          <mxGeometry width="50" height="50" relative="1" as="geometry">
            <mxPoint x="640" y="780" as="sourcePoint" />
            <mxPoint x="430" y="620" as="targetPoint" />
            <Array as="points">
              <mxPoint x="640" y="740" />
            </Array>
          </mxGeometry>
        </mxCell>
        <mxCell id="Xa8ql2i2aWNEMabl2fK9-122" value="M" style="edgeLabel;html=1;align=center;verticalAlign=middle;resizable=0;points=[];" vertex="1" connectable="0" parent="Xa8ql2i2aWNEMabl2fK9-119">
          <mxGeometry x="0.0557" relative="1" as="geometry">
            <mxPoint as="offset" />
          </mxGeometry>
        </mxCell>
      </root>
    </mxGraphModel>
  </diagram>
</mxfile>
